<mxfile host="app.diagrams.net" agent="Mozilla/5.0 (Windows NT 10.0; Win64; x64) AppleWebKit/537.36 (KHTML, like Gecko) Chrome/137.0.0.0 Safari/537.36" version="27.1.4">
  <diagram name="Página-1" id="9ItlAxPBrquwuBxuVVxh">
    <mxGraphModel dx="2183" dy="941" grid="0" gridSize="10" guides="1" tooltips="1" connect="1" arrows="1" fold="1" page="0" pageScale="1" pageWidth="827" pageHeight="1169" math="0" shadow="0">
      <root>
        <mxCell id="0" />
        <mxCell id="1" parent="0" />
        <mxCell id="N-9csO5_dNKfjLwsOmt4-9" style="edgeStyle=orthogonalEdgeStyle;rounded=0;orthogonalLoop=1;jettySize=auto;html=1;exitX=0.5;exitY=0.5;exitDx=0;exitDy=0;exitPerimeter=0;" edge="1" parent="1" source="N-9csO5_dNKfjLwsOmt4-1" target="N-9csO5_dNKfjLwsOmt4-8">
          <mxGeometry relative="1" as="geometry" />
        </mxCell>
        <mxCell id="N-9csO5_dNKfjLwsOmt4-1" value="Usuário" style="shape=umlActor;verticalLabelPosition=bottom;verticalAlign=top;html=1;outlineConnect=0;" vertex="1" parent="1">
          <mxGeometry x="-1083" y="2" width="30" height="60" as="geometry" />
        </mxCell>
        <mxCell id="N-9csO5_dNKfjLwsOmt4-16" style="edgeStyle=orthogonalEdgeStyle;rounded=0;orthogonalLoop=1;jettySize=auto;html=1;exitX=1;exitY=0.5;exitDx=0;exitDy=0;entryX=0;entryY=0.5;entryDx=0;entryDy=0;" edge="1" parent="1">
          <mxGeometry relative="1" as="geometry">
            <mxPoint x="-817" y="32" as="sourcePoint" />
            <mxPoint x="-654" y="-69.00000000000011" as="targetPoint" />
            <Array as="points">
              <mxPoint x="-737" y="32" />
              <mxPoint x="-737" y="-69" />
            </Array>
          </mxGeometry>
        </mxCell>
        <mxCell id="N-9csO5_dNKfjLwsOmt4-8" value="Encurta-URL" style="rounded=1;whiteSpace=wrap;html=1;fillStyle=dashed;fillColor=none;" vertex="1" parent="1">
          <mxGeometry x="-941" y="2" width="120" height="60" as="geometry" />
        </mxCell>
        <mxCell id="N-9csO5_dNKfjLwsOmt4-12" value="&lt;font style=&quot;font-size: 10px;&quot;&gt;Banco&amp;nbsp;&lt;/font&gt;&lt;span data-darkreader-inline-color=&quot;&quot; data-darkreader-inline-bgcolor=&quot;&quot; style=&quot;font-size: 10px; background-color: transparent; color: light-dark(rgb(0, 0, 0), rgb(255, 255, 255)); --darkreader-inline-bgcolor: transparent; --darkreader-inline-color: var(--darkreader-text-000000, #e8e6e3);&quot;&gt;de&lt;/span&gt;&lt;div&gt;&lt;font style=&quot;font-size: 10px;&quot;&gt;Dados&lt;/font&gt;&lt;/div&gt;" style="text;html=1;align=center;verticalAlign=middle;whiteSpace=wrap;rounded=0;" vertex="1" parent="1">
          <mxGeometry x="-668" y="-73" width="80" height="30" as="geometry" />
        </mxCell>
        <mxCell id="N-9csO5_dNKfjLwsOmt4-15" value="" style="shape=datastore;whiteSpace=wrap;html=1;fillColor=none;" vertex="1" parent="1">
          <mxGeometry x="-658" y="-99" width="60" height="60" as="geometry" />
        </mxCell>
        <mxCell id="N-9csO5_dNKfjLwsOmt4-18" value="" style="image;sketch=0;aspect=fixed;html=1;points=[];align=center;fontSize=12;image=img/lib/mscae/Cache_Redis_Product.svg;" vertex="1" parent="1">
          <mxGeometry x="-653" y="7" width="54.76" height="46" as="geometry" />
        </mxCell>
        <mxCell id="N-9csO5_dNKfjLwsOmt4-19" style="edgeStyle=orthogonalEdgeStyle;rounded=0;orthogonalLoop=1;jettySize=auto;html=1;exitX=1;exitY=0.5;exitDx=0;exitDy=0;entryX=0.048;entryY=0.552;entryDx=0;entryDy=0;entryPerimeter=0;" edge="1" parent="1" source="N-9csO5_dNKfjLwsOmt4-8" target="N-9csO5_dNKfjLwsOmt4-18">
          <mxGeometry relative="1" as="geometry" />
        </mxCell>
        <mxCell id="N-9csO5_dNKfjLwsOmt4-21" value="" style="shape=mxgraph.cisco.computers_and_peripherals.pc_routercard;html=1;pointerEvents=1;dashed=0;fillColor=#036897;strokeColor=#ffffff;strokeWidth=2;verticalLabelPosition=bottom;verticalAlign=top;align=center;outlineConnect=0;" vertex="1" parent="1">
          <mxGeometry x="-664.62" y="118" width="78" height="70" as="geometry" />
        </mxCell>
        <mxCell id="N-9csO5_dNKfjLwsOmt4-22" style="edgeStyle=orthogonalEdgeStyle;rounded=0;orthogonalLoop=1;jettySize=auto;html=1;exitX=1;exitY=0.5;exitDx=0;exitDy=0;" edge="1" parent="1">
          <mxGeometry relative="1" as="geometry">
            <mxPoint x="-815" y="32" as="sourcePoint" />
            <mxPoint x="-658.6199999999997" y="147" as="targetPoint" />
            <Array as="points">
              <mxPoint x="-737" y="32" />
              <mxPoint x="-737" y="147" />
            </Array>
          </mxGeometry>
        </mxCell>
        <mxCell id="N-9csO5_dNKfjLwsOmt4-23" value="1 - Recebe a requisição de encurtamento da URL.&lt;div&gt;&lt;div&gt;2 - Salva na base a URL original e a URL encurtada.&lt;/div&gt;&lt;div&gt;3 - Salva em cache para facilitar outras buscas da mesma URL já encurtada.&lt;/div&gt;&lt;/div&gt;&lt;div&gt;4 - Redireciona o usuário para a URL original.&lt;/div&gt;" style="text;html=1;align=left;verticalAlign=middle;whiteSpace=wrap;rounded=0;" vertex="1" parent="1">
          <mxGeometry x="-1186" y="-69" width="415" height="30" as="geometry" />
        </mxCell>
        <mxCell id="N-9csO5_dNKfjLwsOmt4-24" value="2" style="ellipse;whiteSpace=wrap;html=1;aspect=fixed;fillColor=none;" vertex="1" parent="1">
          <mxGeometry x="-690.38" y="-99" width="22.38" height="22.38" as="geometry" />
        </mxCell>
        <mxCell id="N-9csO5_dNKfjLwsOmt4-25" value="3" style="ellipse;whiteSpace=wrap;html=1;aspect=fixed;fillColor=none;" vertex="1" parent="1">
          <mxGeometry x="-680.38" y="2" width="22.38" height="22.38" as="geometry" />
        </mxCell>
        <mxCell id="N-9csO5_dNKfjLwsOmt4-26" value="4" style="ellipse;whiteSpace=wrap;html=1;aspect=fixed;fillColor=none;" vertex="1" parent="1">
          <mxGeometry x="-682" y="111" width="22.38" height="22.38" as="geometry" />
        </mxCell>
        <mxCell id="N-9csO5_dNKfjLwsOmt4-27" value="1" style="ellipse;whiteSpace=wrap;html=1;aspect=fixed;fillColor=none;" vertex="1" parent="1">
          <mxGeometry x="-971" width="22.38" height="22.38" as="geometry" />
        </mxCell>
      </root>
    </mxGraphModel>
  </diagram>
</mxfile>
